<svg width="171" height="48" viewBox="0 0 171 48" fill="none" xmlns="http://www.w3.org/2000/svg">
<path d="M63.583 11.2461H62.7294C62.6295 11.2461 62.5345 11.2026 62.4685 11.1285L62.1222 10.7372C62.0223 10.6244 61.8484 10.6148 61.7373 10.7162C61.7292 10.7227 61.7228 10.7307 61.7163 10.7372L61.42 11.0722C61.3234 11.1833 61.1832 11.2461 61.0367 11.2461H56.3629C56.2276 11.6326 56.1422 12.0337 56.1084 12.4411H60.5213C60.5986 12.4411 60.6727 12.4089 60.7258 12.3526L61.1381 11.9225C61.1897 11.8694 61.2605 11.8388 61.3346 11.8388H61.3507C61.428 11.8388 61.5021 11.8726 61.5553 11.929L61.9015 12.3203C61.9676 12.396 62.0626 12.4379 62.1625 12.4379H65.762C65.7298 12.0304 65.6445 11.6278 65.5076 11.2429H63.5862L63.583 11.2461ZM58.7771 14.9552C58.8544 14.9552 58.9285 14.923 58.9816 14.8666L59.3923 14.4366C59.4438 14.3835 59.5147 14.3545 59.5888 14.3529H59.6065C59.6838 14.3529 59.7579 14.3867 59.8111 14.4431L60.1557 14.8344C60.2217 14.9085 60.3168 14.952 60.4166 14.952H65.2966C65.4818 14.5703 65.6171 14.1644 65.696 13.7473H61.0109C60.9127 13.7473 60.8176 13.7038 60.7516 13.6313L60.4053 13.24C60.3538 13.182 60.2797 13.1482 60.2008 13.1482C60.1235 13.1482 60.0494 13.182 59.9979 13.24L59.7015 13.575C59.6033 13.6845 59.4632 13.7473 59.3166 13.7473H56.1744C56.2533 14.166 56.387 14.5719 56.5722 14.9552L58.7787 14.952L58.7771 14.9552ZM62.2398 9.93834C62.3171 9.93834 62.3912 9.90612 62.4459 9.84976L62.8566 9.42135C62.9081 9.3682 62.979 9.3376 63.0531 9.33599H63.0708C63.1481 9.33599 63.2222 9.36981 63.2737 9.42779L63.62 9.81915C63.686 9.89324 63.7811 9.93511 63.8809 9.93511H64.8086C63.2029 7.7963 60.167 7.36467 58.0282 8.97039C57.6626 9.24419 57.3388 9.56952 57.0634 9.93511H62.2414L62.2398 9.93834ZM60.3747 16.1535H59.1056C59.0058 16.1535 58.9124 16.11 58.8463 16.0359L58.5017 15.6445C58.4002 15.5318 58.2263 15.5221 58.1135 15.6236C58.1055 15.63 58.099 15.6365 58.0926 15.6445L57.7946 15.986C57.698 16.0971 57.5579 16.1599 57.4113 16.1599H57.392C59.2151 18.1151 62.2784 18.223 64.2352 16.3999C64.3174 16.3226 64.3979 16.242 64.4752 16.1599L60.3747 16.1535ZM39.5165 17.3807L38.5308 14.9858H34.1259L33.1403 17.3807H32L36.3227 8.32295L40.6567 17.3807H39.5165ZM34.4996 14.0775H38.1475L36.3131 10.2154L34.4996 14.0775ZM42.2302 17.3807V8.32295H44.7524C46.7237 8.32295 47.7593 9.22486 47.7593 10.9288C47.7593 12.6328 46.6593 13.5154 44.7395 13.5154H43.2932V17.3823H42.2302V17.3807ZM43.2932 12.5668H44.4963C46.0199 12.5668 46.6883 12.0691 46.6883 10.9288C46.6883 9.78855 46.0102 9.26351 44.4995 9.26351H43.2932V12.5668ZM51.6198 9.28928H48.4953V8.31651H55.8056V9.28928H52.6811V17.3807H51.6198V9.28928ZM67.255 15.7283L68.1698 15.1066L68.2407 15.2532C68.8044 16.2775 69.418 16.6898 70.3521 16.6898C71.3893 16.6898 72.1189 15.9731 72.1189 15.1018C72.1189 14.2836 71.7082 13.7328 70.0703 13.0531C68.1875 12.272 67.5481 11.4668 67.5481 10.3136C67.5481 9.05897 68.5354 8.07815 70.2362 8.07815C71.4908 8.07815 72.3476 8.61446 72.8356 9.48577L72.0931 9.99793L71.8757 9.94478C71.4908 9.34404 71.0173 8.99777 70.2104 8.99777C69.2247 8.99777 68.6498 9.54858 68.6498 10.291C68.6498 10.982 69.0202 11.3798 70.6211 12.1094C72.7068 13.0564 73.2205 13.8359 73.2205 15.0905C73.2205 16.4595 72.0432 17.6255 70.365 17.6255C68.9574 17.6255 67.9846 17.0876 67.255 15.7299" fill="black"/>
<path d="M68.8123 32.1318C68.5112 31.9063 68.4081 31.6953 68.3211 31.4779C67.424 29.2392 66.5382 26.9957 65.6202 24.7651C65.5155 24.509 65.2466 24.1482 65.0372 24.137C63.9179 24.0742 62.7953 24.108 61.8225 24.108C60.8369 28.8398 59.8786 33.4331 58.9268 37.999H62.5296C63.0868 35.2852 63.6312 32.6407 64.1739 29.9946C64.4316 30.2184 64.5331 30.431 64.6201 30.6484C65.53 32.9113 66.4319 35.1773 67.358 37.4321C67.4546 37.6656 67.6898 38.0038 67.875 38.0135C68.938 38.0699 70.0058 38.0409 70.9238 38.0409C71.8966 33.3332 72.8468 28.7335 73.7954 24.145H70.315C69.8012 26.8797 69.3068 29.505 68.8123 32.1318Z" fill="black"/>
<path d="M134.827 24.1305C134.602 25.5253 134.413 26.8459 134.169 28.1569C133.921 29.484 133.616 30.7998 133.288 32.3556C133.088 31.9079 132.977 31.6776 132.883 31.4425C131.985 29.2054 131.094 26.9651 130.179 24.7345C130.081 24.4961 129.846 24.1466 129.659 24.1386C128.516 24.0838 127.367 24.1112 126.403 24.1112C125.41 28.8527 124.452 33.4283 123.497 37.9894H127.1C127.66 35.2707 128.205 32.631 128.749 29.9913C129.008 30.2217 129.108 30.4375 129.197 30.6581C130.107 32.9193 131.01 35.1838 131.932 37.4402C132.022 37.6608 132.215 38.0006 132.374 38.0087C133.458 38.0586 134.545 38.0345 135.491 38.0345C136.467 33.322 137.414 28.7416 138.369 24.1305H134.827Z" fill="black"/>
<path d="M86.8378 24.3689C86.6896 24.3061 86.5398 24.2433 86.3852 24.203C81.1864 22.8308 75.725 25.1339 74.48 31.1719C73.649 35.2047 75.9633 38.1552 80.0493 38.334C81.6437 38.4049 83.1899 38.1343 84.7054 37.6028C85.5493 37.3065 85.9987 36.8636 86.1485 35.9327C86.4593 34.0161 86.9119 32.1237 87.3226 30.1379C85.7249 30.1379 84.2255 30.1379 82.7276 30.1379C82.594 30.1379 82.4474 30.1057 82.3282 30.1492C82.172 30.2055 81.9369 30.2973 81.9095 30.4165C81.7436 31.101 81.6276 31.7984 81.4779 32.5859H83.4411C83.1625 35.0614 83.3074 35.1467 80.956 35.1532C80.3843 35.1532 79.7272 35.0678 79.2601 34.7779C78.7544 34.4655 78.2278 33.9324 78.049 33.3848C77.2566 30.9512 78.9509 27.8896 81.4392 27.2808C83.4524 26.788 85.4334 26.9345 87.3032 28.2648C87.4707 27.4966 87.6253 26.8202 87.7671 26.1405C88.0248 24.9052 87.9958 24.8537 86.8378 24.3673V24.3689Z" fill="black"/>
<path d="M45.2597 28.7738C45.6382 26.4401 44.5494 24.7409 42.3333 24.2529C41.8663 24.1499 41.375 24.1193 40.8935 24.1144C39.1235 24.0983 37.3519 24.1209 35.5803 24.0951C35.0729 24.0871 34.8942 24.2707 34.7975 24.7603C34.2967 27.2824 33.7571 29.7981 33.224 32.3138C32.8214 34.211 32.4091 36.1066 32 38.0087H35.5513C35.7929 36.7734 36.0457 35.5945 36.2422 34.4075C36.3179 33.9549 36.524 33.8454 36.9412 33.8551C37.7996 33.876 38.6596 33.8808 39.5165 33.8486C42.591 33.7343 44.7685 31.8016 45.2597 28.7722V28.7738ZM41.6891 28.872C41.4234 30.2136 40.8436 30.7821 39.4778 30.9013C38.7096 30.969 37.9301 30.9126 36.9943 30.9126C37.2504 29.6564 37.4759 28.5048 37.7352 27.3613C37.7626 27.2421 37.9961 27.094 38.1378 27.0907C38.9141 27.073 39.6984 27.0408 40.4683 27.1213C41.5055 27.2292 41.8936 27.838 41.6891 28.8704V28.872Z" fill="black"/>
<path d="M55.1243 24.8682C55.018 24.2626 54.7973 24.0484 54.1934 24.0935C53.554 24.1418 52.9049 24.1305 52.2639 24.0951C51.784 24.0693 51.4828 24.2111 51.23 24.6491C50.3023 26.2484 49.336 27.8251 48.3728 29.4035C46.6222 32.2735 44.8618 35.1387 43.0806 38.0489C44.2289 38.0489 45.4014 38.065 46.5722 38.0312C46.7462 38.0264 46.9684 37.8202 47.0764 37.6495C47.5031 36.9699 47.8687 36.25 48.3116 35.5816C48.4469 35.3786 48.7578 35.1805 48.9929 35.1741C50.3587 35.1354 51.7276 35.1371 53.0934 35.1773C53.2899 35.1838 53.5959 35.4463 53.6458 35.6428C53.8423 36.4142 53.9566 37.2082 54.1064 38.02H57.7511C57.5079 37.0697 57.2245 36.1501 57.0425 35.2111C56.3789 31.7678 55.7315 28.3212 55.1211 24.8666L55.1243 24.8682ZM49.9689 32.3927C50.8177 30.8965 51.6391 29.4502 52.4604 28.0039L52.6505 28.0474C52.8599 29.4695 53.0692 30.89 53.2899 32.3927H49.9689Z" fill="black"/>
<path d="M112.76 24.1563H109.205C108.265 28.8398 107.351 33.3961 106.425 38.0038H115.808C116.019 36.9973 116.229 35.9939 116.432 35.0195H110.445C111.226 31.3555 111.991 27.7575 112.76 24.1563Z" fill="black"/>
<path d="M120.902 24.1144C119.917 28.843 118.962 33.4347 118.01 38.0006H121.493C122.474 33.3348 123.441 28.7415 124.413 24.1144H120.902Z" fill="black"/>
<path d="M102.758 27.8783C102.014 27.9331 102.421 28.595 102.227 28.9413C102.19 29.0073 102.19 29.0959 102.175 29.1748C101.97 30.2635 101.405 30.5695 100.4 30.1025C99.8977 29.8689 99.4178 29.5855 98.8911 29.3052C98.7172 29.6467 98.5996 29.9446 98.4257 30.2023C97.688 31.2975 97.6912 31.3925 98.6415 32.3685C98.867 32.2654 99.1085 32.1624 99.3453 32.0464C100.276 31.5938 100.426 31.6486 100.85 32.6021C101.227 33.4546 101.835 33.6629 102.671 33.2269C103.784 32.6471 103.96 32.6713 104.858 33.4991C104.921 33.5571 105.022 33.5748 105.372 33.7278C105.032 31.982 104.765 30.4359 104.42 28.9058C104.228 28.0571 103.75 27.8042 102.758 27.8767V27.8783Z" fill="black"/>
<path d="M99.5917 24.2964C99.3808 24.5332 99.3856 25.0518 99.4403 25.4206C99.6143 26.5963 99.5064 26.7332 98.2711 26.8089C97.9522 26.8282 97.5802 26.9104 97.3434 27.1004C97.0068 27.3726 96.77 27.7704 96.4189 28.2052C97.3949 28.3293 97.825 29.0041 97.9393 30.0574C98.4364 29.091 99.1284 28.8521 100.015 29.3407C100.202 29.4438 100.389 29.5517 100.584 29.6386C101.305 29.9591 101.541 29.8416 101.692 29.0782C101.75 28.7899 101.784 28.4968 101.824 28.2052C101.911 27.5707 102.194 27.2421 102.905 27.3774C103.521 27.495 104.154 27.5224 104.845 27.5965C104.791 27.4128 104.784 27.3307 104.744 27.2711C104.638 27.1165 104.518 26.9732 104.402 26.8266C103.501 25.6896 102.326 24.9181 101.051 24.2594C100.519 23.9856 99.9831 23.86 99.5917 24.2964Z" fill="black"/>
<path d="M103.435 33.4138C103.061 33.5523 102.715 33.7665 102.357 33.9517C101.28 34.5106 101.128 34.4542 100.626 33.3107C100.47 32.9548 100.3 32.6037 100.125 32.2252C99.6304 32.4571 99.2246 32.7905 98.8091 32.8018C98.4241 32.8114 98.0296 32.478 97.6334 32.2912C97.606 32.7148 97.577 33.1819 97.5464 33.6489C97.6124 33.5942 97.6785 33.541 97.7429 33.4862C98.1761 33.7665 98.8123 33.9549 98.9878 34.3511C99.1908 34.8053 98.9862 35.4398 98.9524 36.1066C99.748 36.039 100.55 35.7362 101.093 35.989C101.616 36.2338 101.872 37.052 102.359 37.788C102.951 36.4948 103.525 35.2659 104.069 34.0242C104.138 33.8663 104.13 33.5539 104.029 33.4718C103.897 33.3638 103.61 33.3461 103.435 33.4105V33.4138Z" fill="black"/>
<path d="M100.284 36.4787C98.4483 36.6784 98.4402 36.6961 98.5497 34.8778C98.5723 34.4928 98.5127 34.2142 98.0778 34.2303C97.3611 34.2577 96.915 34.0048 96.9617 33.1464C96.6734 33.3832 96.3787 33.5152 96.2885 33.7327C96.1919 33.9614 96.187 34.4413 96.3191 34.5202C97.0503 34.9599 97.0068 35.4511 96.5687 36.0535C96.4512 36.2161 96.3884 36.4207 96.2805 36.6494C97.3676 37.2018 99.0925 37.2066 98.1793 39.3052C98.2888 39.3148 98.3967 39.3229 98.5062 39.3326C99.2696 38.8091 100.038 38.2905 100.795 37.7574C101.146 37.511 101.597 37.2147 101.228 36.7444C101.064 36.5334 100.597 36.4464 100.286 36.4803L100.284 36.4787Z" fill="black"/>
<path d="M97.3752 37.6527C95.6777 36.8893 95.6729 36.899 96.3541 35.2997C96.0224 34.9454 95.6906 34.5927 95.3395 34.2174C95.1237 34.2947 94.8821 34.3801 94.5519 34.4977C95.3637 35.2756 94.5294 35.6847 94.1831 36.2628C95.449 37.052 95.1285 37.8831 94.1074 38.7141L94.3136 38.9203C95.2896 38.8413 96.2688 38.7866 97.24 38.6658C97.4735 38.6368 97.6796 38.3839 97.8987 38.2326C97.7263 38.0345 97.5927 37.751 97.3752 37.6527Z" fill="black"/>
<path d="M94.5574 37.4112C93.9336 36.6113 93.8702 35.8468 94.3674 35.1177C94.1161 34.6442 93.736 34.1707 93.2303 34.6217C92.8937 34.9229 92.2752 35.303 92.6119 36.0261C92.665 36.1388 92.4476 36.4416 92.2881 36.5753C92.0949 36.738 91.8291 36.8137 91.5698 36.9377C92.7471 37.9185 93.9631 38.115 94.5574 37.4112Z" fill="black"/>
<path d="M96.2093 28.7271C95.1657 28.9751 94.4361 30.6468 94.7663 31.6228C95.1528 31.4408 95.4814 31.2798 95.8163 31.1316C96.2737 30.9303 96.7795 30.8015 97.1869 30.526C97.7732 30.1299 97.3786 29.5597 97.174 29.1748C97.0355 28.9155 96.4944 28.6578 96.2109 28.7255L96.2093 28.7271Z" fill="black"/>
<path d="M92.0658 36.0374C92.2623 35.4882 92.3686 34.9068 92.5232 34.2609C92.3653 34.1804 92.0835 34.0371 91.7002 33.8422C91.5037 34.8697 90.6243 34.5524 89.8384 34.815C90.4407 35.3287 90.8997 35.7684 91.4135 36.1259C91.5536 36.2242 92.0287 36.1388 92.0642 36.0358L92.0658 36.0374Z" fill="black"/>
<path d="M91.0219 34.0725C91.0171 33.7906 91.1024 33.4621 90.9897 33.2334C90.6756 32.5988 90.1442 32.2977 89.2793 32.5135C89.5563 33.0127 89.7592 33.5362 90.1071 33.934C90.2617 34.1111 90.7095 34.0338 91.0235 34.0725H91.0219Z" fill="black"/>
<path d="M91.0716 29.2376C91.6611 28.9896 92.2199 28.6578 92.8239 28.4629C93.8675 28.1279 94.9401 27.8831 95.9934 27.5739C96.2383 27.503 96.5781 27.379 96.657 27.189C97.0065 26.3499 97.6652 26.2516 98.435 26.2919C98.6299 26.3016 98.828 26.221 99.163 26.1534C98.1886 24.356 99.2323 23.6264 100.852 23.1674C99.316 22.702 98.6154 22.5957 95.6021 23.3591C95.5586 23.227 95.5135 23.0933 95.4298 22.8437C94.2927 23.6474 93.1315 24.3367 92.1313 25.2112C91.1135 26.1019 90.4322 27.2808 90.1616 28.6369C90.1133 28.8768 90.2196 29.2183 90.3823 29.4003C90.4596 29.4872 90.8477 29.3359 91.0732 29.2408L91.0716 29.2376ZM92.3021 26.6366C92.5807 26.6366 92.8078 26.862 92.8078 27.1423C92.8078 27.4225 92.5823 27.648 92.3021 27.648C92.0218 27.648 91.7963 27.4225 91.7963 27.1423C91.7963 26.862 92.0218 26.6366 92.3021 26.6366Z" fill="black"/>
</svg>
