<svg width="208" height="62" viewBox="0 0 208 62" fill="none" xmlns="http://www.w3.org/2000/svg">
<path d="M61.7591 6.7131H60.0899C59.8947 6.7131 59.7089 6.62806 59.5797 6.48319L58.9026 5.7179C58.7074 5.49744 58.3672 5.47854 58.1499 5.67695C58.1342 5.68955 58.1216 5.7053 58.109 5.7179L57.5295 6.37296C57.3405 6.59027 57.0665 6.7131 56.78 6.7131H47.6405C47.3759 7.46894 47.209 8.25314 47.1429 9.04993H55.7721C55.9233 9.04993 56.0682 8.98694 56.1721 8.87671L56.9784 8.03583C57.0791 7.9319 57.2177 7.87206 57.3626 7.87206H57.3941C57.5452 7.87206 57.6901 7.9382 57.794 8.04843L58.4712 8.81372C58.6003 8.96174 58.7861 9.04363 58.9814 9.04363H66.0202C65.9572 8.24684 65.7903 7.4595 65.5226 6.7068H61.7654L61.7591 6.7131ZM52.3614 13.9661C52.5126 13.9661 52.6574 13.9031 52.7614 13.7929L53.5644 12.952C53.6652 12.8481 53.8038 12.7914 53.9487 12.7882H53.9833C54.1345 12.7882 54.2794 12.8544 54.3833 12.9646L55.0572 13.7299C55.1864 13.8748 55.3722 13.9598 55.5674 13.9598H65.11C65.4722 13.2134 65.7367 12.4198 65.8911 11.6041H56.7296C56.5374 11.6041 56.3516 11.519 56.2225 11.3773L55.5454 10.612C55.4446 10.4986 55.2997 10.4325 55.1454 10.4325C54.9943 10.4325 54.8494 10.4986 54.7486 10.612L54.1691 11.2671C53.977 11.4812 53.703 11.6041 53.4164 11.6041H47.272C47.4263 12.4229 47.6877 13.2165 48.0499 13.9661L52.3645 13.9598L52.3614 13.9661ZM59.1325 4.15581C59.2837 4.15581 59.4286 4.09282 59.5356 3.98259L60.3387 3.14486C60.4395 3.04093 60.5781 2.98109 60.723 2.97795H60.7576C60.9088 2.97795 61.0536 3.04408 61.1544 3.15746L61.8315 3.92276C61.9607 4.06763 62.1465 4.14951 62.3417 4.14951H64.1558C61.0159 -0.0328506 55.0793 -0.876881 50.8969 2.26304C50.182 2.79843 49.549 3.4346 49.0105 4.14951H59.1357L59.1325 4.15581ZM55.4856 16.3092H53.0039C52.8086 16.3092 52.6259 16.2242 52.4968 16.0793L51.8228 15.314C51.6244 15.0936 51.2843 15.0747 51.0639 15.2731C51.0481 15.2857 51.0355 15.2983 51.0229 15.314L50.4403 15.9817C50.2513 16.199 49.9773 16.3218 49.6907 16.3218H49.6529C53.218 20.1451 59.2081 20.3562 63.0346 16.7911C63.1952 16.6399 63.3527 16.4824 63.5039 16.3218L55.4856 16.3092ZM14.6981 18.709L12.7707 14.0259H4.15716L2.22975 18.709H0L8.4529 0.996993L16.9279 18.709H14.6981ZM4.88782 12.2497H12.0211L8.43401 4.6975L4.88782 12.2497ZM20.0048 18.709V0.996993H24.9367C28.7915 0.996993 30.8166 2.76064 30.8166 6.09267C30.8166 9.4247 28.6655 11.1506 24.9115 11.1506H22.0834V18.7122H20.0048V18.709ZM22.0834 9.29558H24.4359C27.4152 9.29558 28.7222 8.32242 28.7222 6.09267C28.7222 3.86292 27.3964 2.83622 24.4422 2.83622H22.0834V9.29558ZM38.3656 2.88661H32.2558V0.984395H46.5508V2.88661H40.441V18.709H38.3656V2.88661ZM68.9397 15.4778L70.7285 14.2621L70.8671 14.5487C71.9694 16.5517 73.1693 17.358 74.9959 17.358C77.0241 17.358 78.4508 15.9565 78.4508 14.2527C78.4508 12.6528 77.6477 11.5757 74.4448 10.2467C70.7631 8.71924 69.5128 7.14456 69.5128 4.88961C69.5128 2.43625 71.4434 0.518289 74.7691 0.518289C77.2225 0.518289 78.898 1.56703 79.8522 3.27084L78.4004 4.27234L77.9752 4.16841C77.2225 2.99369 76.2966 2.31658 74.7188 2.31658C72.7913 2.31658 71.667 3.39366 71.667 4.84552C71.667 6.1966 72.3914 6.97449 75.5218 8.40116C79.6003 10.253 80.6049 11.7773 80.6049 14.2306C80.6049 16.9076 78.3027 19.1877 75.0211 19.1877C72.2685 19.1877 70.3663 18.1359 68.9397 15.4809" fill="black"/>
<path d="M71.9851 47.5536C71.3962 47.1127 71.1946 46.7002 71.0246 46.275C69.2704 41.8974 67.5382 37.5103 65.7431 33.1484C65.5384 32.6477 65.0124 31.9422 64.603 31.9202C62.4142 31.7973 60.2191 31.8635 58.3169 31.8635C56.3895 41.1163 54.5156 50.0983 52.6543 59.0268H59.6994C60.7891 53.7201 61.8536 48.5488 62.9149 43.3744C63.4188 43.8122 63.6172 44.2279 63.7873 44.6531C65.5667 49.0779 67.3304 53.5091 69.1412 57.9182C69.3302 58.3749 69.79 59.0362 70.1522 59.0551C72.2308 59.1654 74.3188 59.1087 76.1139 59.1087C78.0162 49.9031 79.8743 40.9085 81.7293 31.9359H74.9235C73.9188 37.2835 72.952 42.417 71.9851 47.5536Z" fill="black"/>
<path d="M201.075 31.9076C200.634 34.635 200.265 37.2175 199.787 39.781C199.302 42.3761 198.706 44.9492 198.064 47.9914C197.673 47.1159 197.456 46.6656 197.273 46.2058C195.516 41.8313 193.775 37.4505 191.986 33.0886C191.794 32.6225 191.334 31.9391 190.968 31.9234C188.732 31.8163 186.487 31.8698 184.6 31.8698C182.66 41.1416 180.787 50.0889 178.919 59.0079H185.964C187.06 53.6918 188.125 48.53 189.189 43.3682C189.696 43.8185 189.891 44.2405 190.065 44.672C191.844 49.0937 193.611 53.5217 195.412 57.934C195.589 58.3655 195.966 59.03 196.278 59.0457C198.398 59.1434 200.524 59.0961 202.372 59.0961C204.281 49.8811 206.133 40.9243 208 31.9076H201.075Z" fill="black"/>
<path d="M107.233 32.3741C106.943 32.2512 106.65 32.1284 106.348 32.0497C96.1817 29.3664 85.5022 33.87 83.0678 45.677C81.4427 53.563 85.9683 59.3327 93.9583 59.6822C97.0761 59.8208 100.1 59.2917 103.063 58.2524C104.713 57.6729 105.592 56.8069 105.885 54.9865C106.493 51.2388 107.378 47.5383 108.181 43.6551C105.057 43.6551 102.125 43.6551 99.1957 43.6551C98.9343 43.6551 98.6477 43.5921 98.4146 43.6771C98.1091 43.7874 97.6493 43.9669 97.5958 44.1999C97.2714 45.5384 97.0447 46.9021 96.7518 48.4421H100.591C100.046 53.2827 100.329 53.4496 95.7314 53.4622C94.6133 53.4622 93.3284 53.2953 92.4151 52.7284C91.4262 52.1174 90.3963 51.075 90.0468 50.0042C88.4973 45.2455 91.8104 39.2586 96.6762 38.0681C100.613 37.1044 104.487 37.391 108.143 39.9924C108.471 38.4901 108.773 37.1674 109.05 35.8384C109.554 33.4228 109.497 33.322 107.233 32.3709V32.3741Z" fill="black"/>
<path d="M25.9287 40.9875C26.6688 36.4241 24.5399 33.1015 20.2063 32.1473C19.293 31.9457 18.3325 31.8859 17.3908 31.8764C13.9297 31.8449 10.4653 31.889 7.00104 31.8386C6.00899 31.8229 5.65941 32.1819 5.47045 33.1393C4.491 38.0712 3.43596 42.9905 2.39352 47.9099C1.60618 51.6198 0.799939 55.3266 0 59.046H6.94436C7.41676 56.6305 7.91121 54.3251 8.29543 52.004C8.44346 51.1191 8.84657 50.9049 9.66226 50.9238C11.3409 50.9647 13.0226 50.9742 14.6981 50.9112C20.7102 50.6876 24.9682 46.9084 25.9287 40.9844V40.9875ZM18.9466 41.1797C18.427 43.8031 17.2932 44.9148 14.6225 45.1479C13.1203 45.2801 11.596 45.1699 9.76619 45.1699C10.2669 42.7134 10.7078 40.4616 11.2149 38.2255C11.2684 37.9925 11.7251 37.7028 12.0022 37.6965C13.5202 37.6618 15.054 37.5988 16.5594 37.7563C18.5876 37.9673 19.3466 39.1578 18.9466 41.1765V41.1797Z" fill="black"/>
<path d="M45.218 33.3502C45.0101 32.166 44.5786 31.7471 43.3976 31.8353C42.1473 31.9298 40.8781 31.9077 39.6247 31.8385C38.6862 31.7881 38.0972 32.0652 37.6028 32.9218C35.7888 36.0492 33.8991 39.1324 32.0158 42.2188C28.5925 47.8309 25.1502 53.4337 21.667 59.1246C23.9125 59.1246 26.2052 59.1561 28.4948 59.0899C28.835 59.0805 29.2696 58.6774 29.4806 58.3435C30.3152 57.0145 31.0301 55.6067 31.8961 54.2998C32.1607 53.9029 32.7685 53.5156 33.2283 53.503C35.899 53.4274 38.576 53.4305 41.2466 53.5093C41.6308 53.5219 42.2292 54.0352 42.3268 54.4194C42.7111 55.928 42.9347 57.4806 43.2276 59.0679H50.3546C49.879 57.2098 49.3247 55.4115 48.9689 53.5754C47.6713 46.842 46.4053 40.1024 45.2117 33.347L45.218 33.3502ZM35.1368 48.064C36.7966 45.1382 38.4027 42.3101 40.0089 39.482L40.3805 39.567C40.79 42.3479 41.1994 45.1256 41.6308 48.064H35.1368Z" fill="black"/>
<path d="M157.922 31.958H150.971C149.132 41.1164 147.347 50.0259 145.536 59.0363H163.884C164.296 57.0679 164.706 55.1059 165.103 53.2005H153.396C154.924 46.0357 156.42 39 157.922 31.958Z" fill="black"/>
<path d="M173.845 31.8765C171.917 41.123 170.05 50.1019 168.188 59.0303H175.001C176.919 49.9066 178.808 40.9246 180.71 31.8765H173.845Z" fill="black"/>
<path d="M138.364 39.2363C136.909 39.3434 137.706 40.6378 137.325 41.3149C137.252 41.4441 137.252 41.6173 137.224 41.7716C136.824 43.9006 135.719 44.4989 133.753 43.5856C132.771 43.129 131.832 42.5747 130.802 42.0267C130.462 42.6944 130.232 43.277 129.892 43.7809C128.45 45.9225 128.456 46.1083 130.314 48.0168C130.755 47.8152 131.228 47.6137 131.691 47.3869C133.511 46.5019 133.804 46.609 134.632 48.4734C135.371 50.1405 136.558 50.5478 138.194 49.6954C140.37 48.5616 140.713 48.6089 142.471 50.2276C142.594 50.341 142.792 50.3757 143.475 50.6749C142.811 47.2609 142.288 44.2375 141.614 41.2456C141.239 39.5859 140.304 39.0915 138.364 39.2332V39.2363Z" fill="black"/>
<path d="M132.173 32.2324C131.76 32.6953 131.769 33.7094 131.876 34.4306C132.217 36.7297 132.006 36.9974 129.59 37.1454C128.966 37.1832 128.239 37.3438 127.776 37.7154C127.118 38.2477 126.655 39.0256 125.968 39.8759C127.877 40.1184 128.718 41.438 128.941 43.4977C129.913 41.608 131.267 41.1409 133.001 42.0962C133.366 42.2978 133.731 42.5088 134.113 42.6788C135.523 43.3056 135.983 43.0757 136.279 41.5829C136.393 41.0191 136.459 40.4459 136.538 39.8759C136.708 38.635 137.262 37.9926 138.651 38.2571C139.857 38.487 141.095 38.5406 142.446 38.6854C142.339 38.3264 142.326 38.1658 142.247 38.0493C142.039 37.7469 141.806 37.4666 141.58 37.18C139.816 34.9566 137.52 33.448 135.026 32.1599C133.987 31.6246 132.938 31.3789 132.173 32.2324Z" fill="black"/>
<path d="M139.687 50.0611C138.956 50.3319 138.279 50.7508 137.58 51.1129C135.473 52.2058 135.177 52.0955 134.194 49.8595C133.889 49.1635 133.558 48.4769 133.215 47.7368C132.248 48.1903 131.454 48.8422 130.642 48.8643C129.889 48.8832 129.118 48.2313 128.343 47.8659C128.289 48.6942 128.233 49.6075 128.173 50.5209C128.302 50.4138 128.431 50.3099 128.557 50.2028C129.404 50.7508 130.648 51.1192 130.992 51.894C131.388 52.7821 130.988 54.023 130.922 55.3268C132.478 55.1945 134.046 54.6024 135.108 55.0969C136.131 55.5756 136.632 57.1755 137.583 58.6147C138.742 56.0858 139.863 53.6828 140.928 51.2547C141.063 50.946 141.047 50.335 140.849 50.1744C140.591 49.9634 140.03 49.9288 139.687 50.0548V50.0611Z" fill="black"/>
<path d="M133.527 56.0539C129.936 56.4444 129.921 56.479 130.135 52.9234C130.179 52.1707 130.062 51.6259 129.212 51.6574C127.811 51.7109 126.938 51.2165 127.029 49.5378C126.466 50.0008 125.889 50.259 125.713 50.6842C125.524 51.1314 125.515 52.0699 125.773 52.2243C127.203 53.084 127.118 54.0446 126.261 55.2225C126.031 55.5405 125.908 55.9405 125.697 56.3877C127.823 57.468 131.196 57.4774 129.41 61.581C129.625 61.5999 129.836 61.6157 130.05 61.6346C131.543 60.611 133.045 59.5969 134.525 58.5545C135.212 58.0726 136.093 57.4931 135.372 56.5735C135.051 56.161 134.138 55.9909 133.53 56.057L133.527 56.0539Z" fill="black"/>
<path d="M127.839 58.3497C124.519 56.8569 124.51 56.8758 125.842 53.7485C125.193 53.0556 124.545 52.3659 123.858 51.6321C123.436 51.7832 122.964 51.9502 122.318 52.1801C123.905 53.7012 122.274 54.5012 121.597 55.6318C124.072 57.175 123.445 58.8 121.449 60.4251L121.852 60.8282C123.76 60.6739 125.675 60.5668 127.574 60.3306C128.031 60.2739 128.434 59.7795 128.862 59.4835C128.525 59.0961 128.264 58.5418 127.839 58.3497Z" fill="black"/>
<path d="M122.328 57.8774C121.109 56.3132 120.985 54.8183 121.957 53.3927C121.465 52.4668 120.722 51.5409 119.733 52.4227C119.075 53.0116 117.866 53.7549 118.524 55.1689C118.628 55.3894 118.203 55.9815 117.891 56.2429C117.513 56.561 116.993 56.709 116.486 56.9515C118.789 58.8694 121.166 59.2537 122.328 57.8774Z" fill="black"/>
<path d="M125.559 40.8959C123.518 41.3809 122.091 44.6499 122.737 46.5584C123.493 46.2026 124.135 45.8876 124.79 45.5979C125.685 45.2042 126.674 44.9523 127.47 44.4137C128.617 43.639 127.845 42.5241 127.445 41.7714C127.174 41.2644 126.116 40.7605 125.562 40.8927L125.559 40.8959Z" fill="black"/>
<path d="M117.456 55.1908C117.84 54.1168 118.048 52.9799 118.351 51.717C118.042 51.5596 117.491 51.2793 116.741 50.8982C116.357 52.9075 114.637 52.2871 113.101 52.8004C114.278 53.8051 115.176 54.6648 116.181 55.364C116.455 55.5561 117.384 55.3892 117.453 55.1876L117.456 55.1908Z" fill="black"/>
<path d="M115.414 51.349C115.405 50.7978 115.572 50.1554 115.351 49.7081C114.737 48.4673 113.698 47.8784 112.007 48.3004C112.549 49.2767 112.945 50.3002 113.626 51.0781C113.928 51.4246 114.803 51.2734 115.418 51.349H115.414Z" fill="black"/>
<path d="M115.512 41.8944C116.665 41.4094 117.758 40.7606 118.939 40.3795C120.98 39.7244 123.077 39.2457 125.137 38.6411C125.615 38.5025 126.28 38.26 126.434 37.8884C127.118 36.2475 128.406 36.0554 129.911 36.1342C130.292 36.1531 130.68 35.9956 131.335 35.8633C129.429 32.3486 131.47 30.922 134.638 30.0244C131.634 29.1142 130.264 28.9064 124.371 30.3992C124.286 30.1409 124.198 29.8795 124.034 29.3914C121.811 30.9629 119.54 32.3108 117.585 34.0209C115.594 35.7625 114.262 38.0679 113.733 40.7196C113.638 41.1889 113.846 41.8566 114.164 42.2124C114.316 42.3825 115.075 42.0865 115.515 41.9007L115.512 41.8944ZM117.918 36.8081C118.463 36.8081 118.907 37.249 118.907 37.797C118.907 38.345 118.466 38.7859 117.918 38.7859C117.37 38.7859 116.93 38.345 116.93 37.797C116.93 37.249 117.37 36.8081 117.918 36.8081Z" fill="black"/>
</svg>
